<?xml version="1.0" standalone="no"?>
<!DOCTYPE svg PUBLIC "-//W3C//DTD SVG 20010904//EN"
 "http://www.w3.org/TR/2001/REC-SVG-20010904/DTD/svg10.dtd">
<svg version="1.0" xmlns="http://www.w3.org/2000/svg"
 width="300.000000pt" height="300.000000pt" viewBox="0 0 300.000000 300.000000"
 preserveAspectRatio="xMidYMid meet">
<metadata>
Created by potrace 1.10, written by Peter Selinger 2001-2011
</metadata>
<g transform="translate(0.000000,300.000000) scale(0.100000,-0.100000)"
fill="#000000" stroke="none">
<path d="M1630 2993 c-67 -11 -199 -47 -231 -64 -60 -30 -165 -49 -264 -48
-63 1 -120 -6 -181 -20 -49 -12 -99 -24 -112 -27 -12 -2 -74 -53 -136 -113
-85 -81 -136 -121 -202 -157 -174 -96 -266 -220 -280 -374 -10 -108 -36 -169
-115 -268 -73 -90 -99 -150 -99 -225 0 -34 2 -38 15 -27 8 7 15 24 15 39 1 61
34 123 118 225 58 69 88 142 101 244 13 106 20 126 76 205 27 40 62 73 107
103 37 24 70 44 73 44 21 0 143 97 215 170 81 83 107 100 180 114 14 3 43 11
65 17 56 17 195 23 195 10 0 -14 -104 -66 -150 -76 -34 -7 -128 -55 -153 -78
-6 -7 -37 -30 -67 -53 -69 -52 -240 -222 -240 -239 0 -7 -4 -15 -9 -17 -5 -1
-20 -27 -35 -56 -20 -39 -24 -57 -17 -71 8 -14 0 -38 -34 -107 -39 -78 -72
-175 -90 -267 -4 -22 -9 -26 -23 -19 -20 11 -40 6 -64 -16 -17 -14 -18 -13
-18 15 0 16 9 56 20 89 11 32 19 68 19 79 0 33 -36 -68 -49 -142 -7 -37 -21
-97 -32 -131 -24 -77 -18 -93 8 -22 l18 51 19 -25 c14 -19 28 -26 52 -26 l33
0 -6 -42 c-14 -88 -6 -230 17 -308 64 -218 96 -299 133 -344 17 -21 33 -35 35
-32 3 3 25 -18 49 -47 30 -35 44 -62 44 -82 1 -58 36 -96 102 -110 15 -3 43
-19 62 -35 30 -27 33 -35 29 -68 -4 -31 0 -44 22 -70 25 -30 31 -32 93 -32 37
0 72 -4 78 -8 6 -4 25 -29 44 -56 l33 -49 -27 7 c-46 11 -230 99 -249 118 -10
10 -22 18 -28 18 -6 0 -37 20 -68 45 -54 41 -59 48 -65 94 -5 42 -13 55 -44
81 -32 26 -44 30 -84 28 -51 -3 -57 -8 -34 -27 11 -9 20 -9 34 -2 39 21 113
-56 97 -101 -4 -13 24 -37 123 -105 26 -18 54 -39 62 -46 8 -7 40 -24 70 -37
30 -12 78 -33 105 -46 55 -26 137 -58 204 -81 24 -8 51 -21 58 -29 26 -26 203
-74 271 -74 110 0 223 43 296 112 22 22 81 60 131 85 49 26 114 62 143 82 28
19 55 31 59 27 11 -10 -103 -112 -167 -148 -86 -49 -144 -78 -157 -78 -7 0
-13 -5 -13 -11 0 -14 29 -4 113 37 80 39 99 53 190 141 65 63 67 66 47 80 -11
8 -20 23 -20 34 0 15 -7 19 -36 19 -34 0 -35 -1 -29 -29 9 -40 -22 -71 -70
-71 -26 0 -44 -9 -72 -35 -183 -171 -271 -218 -414 -217 -171 1 -408 123 -469
243 l-19 36 -74 -5 c-94 -6 -112 8 -103 79 6 45 5 48 -24 66 -17 9 -28 23 -26
30 5 13 -7 18 -69 29 -48 8 -75 29 -75 59 0 11 16 48 35 80 l36 58 -31 32
c-18 19 -56 40 -94 53 -79 27 -78 27 -64 -3 8 -18 17 -24 30 -19 10 3 24 1 31
-4 7 -5 24 -12 38 -15 40 -10 53 -44 34 -90 -14 -33 -18 -36 -35 -27 -11 6
-20 14 -20 18 0 4 -21 29 -45 56 -61 65 -81 105 -171 337 -30 78 -54 203 -54
280 0 23 3 26 22 21 13 -3 19 -1 15 5 -11 17 12 220 35 313 11 47 37 121 57
165 43 93 56 135 41 135 -26 0 -5 48 65 147 22 32 229 212 305 265 36 25 117
69 180 98 63 29 119 56 124 61 6 5 17 9 26 9 8 0 21 10 28 21 12 18 20 21 60
16 26 -3 70 -1 99 4 29 6 67 12 85 14 53 8 268 5 331 -4 66 -9 64 1 -3 17 -27
7 -114 11 -216 9 -183 -2 -183 -2 -37 38 34 10 70 26 79 36 9 11 15 18 13 18
-2 -1 -15 -4 -29 -6z m-1282 -1165 c32 -32 -9 -96 -44 -67 -19 15 -18 38 3 61
19 21 25 22 41 6z"/>
<path d="M1754 2976 c11 -9 31 -16 44 -16 33 0 129 -28 176 -52 42 -21 187
-131 284 -216 15 -13 54 -37 87 -54 33 -16 74 -40 90 -53 17 -12 62 -38 100
-58 39 -19 87 -53 107 -74 62 -65 158 -280 158 -355 0 -24 -17 -23 -25 2 -3
11 -10 20 -15 20 -5 0 -15 11 -22 24 -37 70 -229 264 -338 342 -44 32 -80 61
-80 66 0 4 -6 8 -12 8 -7 0 -28 25 -47 54 -34 55 -56 73 -101 81 -13 3 -58 22
-100 43 -72 37 -113 53 -172 66 -29 7 -38 31 -15 39 34 12 -178 6 -325 -9
l-166 -18 97 -105 c53 -58 109 -123 124 -143 25 -34 33 -38 71 -38 27 0 48 -6
56 -15 7 -8 18 -15 26 -15 8 0 3 10 -12 25 -39 40 -29 60 31 60 45 0 51 -3 63
-28 17 -35 8 -46 -51 -64 -58 -17 -75 -16 -104 7 -15 11 -28 19 -30 17 -2 -2
22 -45 53 -95 66 -105 50 -105 170 3 73 65 94 101 34 57 -35 -26 -100 -30
-100 -7 0 8 7 15 15 15 9 0 18 7 21 15 7 17 50 20 90 5 23 -9 31 -7 51 11 26
26 32 50 6 27 -25 -21 -124 -1 -150 30 -24 30 -110 36 -124 9 -15 -25 -89 -23
-112 3 -9 11 -17 22 -17 25 0 9 154 5 240 -6 46 -5 110 -19 143 -30 46 -15 62
-17 73 -8 21 17 17 29 -8 30 -34 1 -91 24 -96 38 -3 9 9 10 50 5 60 -8 91 -21
83 -34 -3 -6 1 -7 9 -4 9 3 16 14 16 24 0 14 -17 22 -77 37 -43 11 -100 26
-128 33 -27 7 -132 16 -233 20 -100 4 -185 10 -189 13 -8 9 35 24 93 32 27 4
74 13 104 22 41 11 76 13 139 8 102 -9 154 -26 297 -98 89 -46 113 -62 126
-89 15 -33 73 -83 155 -136 130 -84 343 -325 412 -466 90 -185 119 -254 130
-311 7 -33 16 -74 22 -91 5 -17 9 -47 9 -67 0 -30 -4 -37 -20 -37 -11 0 -20 5
-20 10 0 6 -5 10 -11 10 -8 0 -7 -5 1 -15 8 -10 26 -15 48 -13 l34 2 -6 49
c-3 27 -10 54 -15 61 -6 7 -9 25 -7 41 1 17 -4 37 -11 47 -8 9 -16 33 -17 55
-2 21 -20 71 -40 111 -28 56 -40 96 -51 175 -20 137 -34 185 -87 297 -56 119
-122 189 -211 227 -34 15 -76 39 -94 54 -18 15 -60 41 -95 58 -35 17 -106 67
-158 112 -177 150 -264 196 -392 205 -67 5 -72 4 -54 -10z m-58 -168 c-10 -6
-44 -14 -75 -18 -31 -5 -74 -13 -96 -19 -33 -8 -43 -7 -58 6 -34 31 -2 40 143
42 81 0 101 -2 86 -11z m139 -113 c125 -21 150 -28 125 -35 -18 -4 -25 -13
-24 -29 1 -19 -3 -21 -23 -16 -35 8 -210 24 -274 25 -46 0 -59 4 -79 26 -20
20 -22 27 -11 34 16 9 224 6 286 -5z m-20 -243 l24 -19 -32 -27 -31 -28 -23
29 c-26 32 -29 49 -10 56 25 11 49 7 72 -11z"/>
<path d="M1279 2838 c0 -2 -2 -62 -4 -134 -4 -153 -18 -284 -46 -440 l-21
-111 -241 58 c-133 32 -250 58 -259 59 -24 0 -23 -23 6 -106 30 -87 80 -195
140 -303 25 -46 45 -85 44 -86 -2 -2 -93 -15 -203 -30 -231 -31 -235 -31 -235
-51 0 -16 216 -238 288 -295 l43 -35 -113 -77 c-142 -97 -173 -121 -165 -133
3 -5 69 -30 146 -54 77 -25 141 -48 141 -51 0 -4 -25 -49 -55 -100 -44 -75
-52 -96 -41 -104 7 -6 60 -19 118 -29 l105 -18 -22 -77 c-14 -46 -19 -80 -14
-86 5 -5 45 -8 88 -6 77 3 79 2 85 -23 3 -14 31 -52 61 -84 64 -69 157 -120
279 -151 95 -25 133 -26 209 -6 79 20 125 46 188 102 30 27 67 57 82 67 16 10
36 31 45 47 15 27 21 30 62 27 l45 -3 -2 54 -3 54 71 -5 c53 -4 72 -2 76 8 3
7 -16 40 -41 73 -38 49 -45 64 -40 88 5 27 13 31 112 61 59 18 112 32 118 32
6 0 17 6 23 13 8 11 -1 28 -39 78 -27 35 -50 74 -50 86 0 12 -13 44 -29 71
l-28 48 153 79 c94 49 154 86 154 95 0 8 -55 49 -125 93 l-125 78 60 89 c33
49 68 94 78 99 24 13 142 191 142 214 0 16 -6 17 -52 10 -55 -8 -327 -8 -335
0 -2 3 7 42 21 87 39 121 59 252 54 345 -6 95 -32 168 -59 163 -10 -2 -106
-79 -214 -172 -108 -92 -198 -166 -200 -164 -3 2 -29 44 -60 92 -30 48 -84
125 -119 170 -118 151 -290 321 -297 294z m136 -168 c105 -112 207 -248 277
-366 27 -47 54 -84 59 -82 5 2 99 81 210 176 110 96 203 172 206 169 11 -11
23 -85 23 -144 0 -75 -29 -229 -64 -338 -14 -44 -22 -83 -18 -87 14 -14 207
-30 290 -24 45 3 82 4 82 2 0 -12 -94 -137 -114 -153 -22 -17 -156 -208 -156
-222 0 -4 54 -40 120 -81 66 -40 120 -75 120 -76 0 -2 -65 -37 -145 -79 -80
-42 -145 -83 -145 -90 0 -8 13 -36 28 -62 16 -26 32 -63 35 -82 4 -19 23 -54
43 -78 20 -24 35 -45 33 -47 -2 -1 -40 -13 -84 -25 -44 -12 -87 -24 -95 -27
-11 -3 -20 7 -29 31 -6 19 -23 43 -35 53 -22 17 -23 21 -14 82 6 36 16 72 24
80 40 46 61 180 34 230 -6 11 -13 69 -15 128 -2 59 -10 132 -18 162 -13 48
-14 57 -1 71 8 8 14 29 14 45 0 39 -33 71 -130 125 -41 23 -98 55 -125 70
-140 78 -335 78 -479 1 -80 -43 -175 -144 -219 -234 -20 -42 -44 -103 -52
-135 -16 -65 -55 -364 -55 -422 0 -35 -3 -40 -41 -56 -120 -55 -131 -214 -18
-277 40 -23 40 -23 33 -68 -11 -67 -8 -118 10 -144 15 -24 15 -24 -29 -28 -25
-2 -45 -1 -45 1 0 2 9 35 21 74 12 41 17 73 12 78 -5 5 -53 18 -107 28 -54 11
-100 21 -102 24 -3 3 18 43 45 90 28 47 51 92 51 101 0 10 -41 28 -135 57 -74
24 -135 46 -135 49 1 3 59 45 130 94 72 49 130 94 130 101 0 7 -29 36 -64 64
-71 55 -258 242 -251 249 4 4 381 59 418 62 16 1 4 31 -53 136 -58 105 -150
310 -150 333 0 6 3 11 7 11 5 0 115 -25 247 -56 179 -42 240 -53 246 -44 23
38 69 386 71 543 1 59 5 106 8 105 4 -2 47 -46 96 -98z m275 -614 c36 -8 81
-21 100 -29 34 -15 33 -16 -50 -10 -150 9 -302 -40 -437 -141 -50 -36 -63 -52
-63 -73 0 -29 25 -63 47 -63 8 0 66 25 131 56 64 30 143 62 177 69 121 29 240
14 362 -46 59 -28 63 -33 79 -82 9 -29 19 -95 21 -147 l5 -95 -28 27 c-41 39
-95 58 -161 58 -234 0 -320 -310 -119 -434 82 -51 159 -47 267 11 11 6 -39
-256 -72 -379 l-10 -37 -33 37 c-19 20 -38 34 -42 29 -4 -4 4 -20 18 -35 36
-39 48 -65 48 -109 0 -74 -60 -133 -135 -133 -41 0 -48 -17 -7 -22 26 -3 25
-4 -29 -46 -74 -56 -150 -82 -238 -82 -100 0 -243 48 -334 112 -29 21 -107
114 -107 128 0 4 12 5 28 3 26 -4 26 -4 8 11 -11 9 -25 16 -31 16 -6 0 -24 13
-39 29 -68 71 -41 190 50 223 19 7 34 16 34 20 0 16 -38 7 -75 -18 l-38 -25 7
128 c8 136 40 454 57 563 25 156 82 272 178 362 127 120 264 159 431 124z
m100 -66 c73 -12 188 -62 238 -104 31 -27 43 -68 23 -80 -4 -3 -39 10 -77 30
-91 46 -162 64 -258 64 -104 0 -177 -20 -315 -86 -88 -42 -117 -52 -127 -43
-25 20 -15 44 34 81 99 75 230 129 342 141 66 7 75 7 140 -3z m178 -449 c46
-24 97 -76 111 -114 17 -43 13 -127 -8 -172 -74 -165 -311 -165 -387 -1 -69
148 30 305 194 306 33 0 67 -7 90 -19z m-964 -498 c-4 -71 -8 -129 -9 -131 -2
-2 -19 11 -39 28 -46 41 -62 95 -43 143 14 32 69 87 88 87 6 0 7 -50 3 -127z
m1072 -90 c13 -65 -26 -133 -77 -133 -15 0 -17 4 -10 23 4 12 14 54 20 92 18
103 19 104 41 75 11 -14 22 -39 26 -57z m5 -155 c44 -52 43 -54 -28 -50 l-66
5 7 -57 c6 -56 6 -57 -16 -54 -29 4 -35 49 -15 110 12 35 20 44 46 49 18 4 35
9 38 13 10 9 13 8 34 -16z"/>
<path d="M1440 1730 c0 -5 19 -14 43 -21 27 -7 55 -25 80 -52 40 -44 53 -30
15 18 -33 42 -138 84 -138 55z"/>
<path d="M1297 1676 c-117 -32 -187 -124 -187 -245 0 -84 23 -134 85 -189 53
-46 95 -62 170 -62 93 0 195 69 231 156 23 56 18 152 -12 212 -52 104 -175
159 -287 128z m158 -35 c84 -38 135 -117 135 -211 0 -197 -236 -303 -382 -172
-122 110 -98 305 45 377 62 31 143 33 202 6z"/>
<path d="M1347 1438 c-5 -36 7 -50 38 -46 24 3 35 48 12 48 -8 0 -17 7 -21 15
-9 25 -23 17 -29 -17z"/>
<path d="M1795 1660 c-37 -12 -93 -56 -83 -65 4 -4 22 3 40 16 25 18 46 24 88
24 30 0 65 -4 78 -8 14 -5 22 -4 22 2 0 27 -94 47 -145 31z"/>
<path d="M1636 1140 c-10 -95 -31 -161 -60 -189 l-24 -23 -17 26 c-14 21 -17
42 -13 101 4 55 2 75 -7 75 -17 0 -28 -103 -15 -149 5 -21 19 -46 31 -57 19
-17 23 -17 47 -3 38 21 71 110 79 209 8 101 -11 110 -21 10z"/>
<path d="M1130 1191 c0 -13 64 -59 112 -81 54 -24 184 -28 214 -6 17 13 10 14
-66 9 -74 -5 -92 -3 -137 16 -28 13 -61 34 -74 47 -22 24 -49 32 -49 15z"/>
<path d="M1686 1121 c-10 -16 81 -88 120 -96 47 -8 134 8 134 26 0 5 -25 6
-59 3 -77 -8 -103 -1 -150 42 -22 19 -42 31 -45 25z"/>
<path d="M1157 799 c-38 -4 -71 -10 -75 -13 -13 -14 11 -16 99 -6 52 5 135 10
185 10 l92 0 7 -47 c8 -57 19 -73 50 -73 30 0 46 21 52 70 3 23 11 40 18 40
53 0 197 -66 267 -122 41 -32 47 -12 7 22 -55 48 -167 99 -252 115 -85 16
-329 18 -450 4z m398 -34 c-3 -14 -7 -36 -10 -49 -5 -27 -25 -38 -44 -26 -7 4
-16 28 -18 54 l-6 46 42 0 c39 0 41 -2 36 -25z"/>
<path d="M1386 714 c-22 -22 -20 -57 5 -80 40 -36 77 22 45 72 -19 28 -29 30
-50 8z m42 -42 c3 -28 0 -33 -15 -30 -12 2 -19 14 -21 36 -3 28 0 33 15 30 12
-2 19 -14 21 -36z"/>
<path d="M1507 603 c-12 -11 -8 -40 7 -52 28 -23 68 17 45 45 -12 15 -41 19
-52 7z m40 -18 c7 -20 -2 -29 -21 -22 -9 4 -13 13 -10 22 8 19 23 19 31 0z"/>
<path d="M1897 1364 c-3 -4 -16 -7 -28 -8 -34 -2 -36 -44 -3 -52 14 -4 30 -2
37 5 6 6 7 11 3 11 -5 0 -3 7 4 15 13 16 1 42 -13 29z"/>
<path d="M1224 2791 c5 -8 -18 -23 -71 -47 -171 -79 -203 -96 -244 -130 -24
-20 -54 -40 -66 -45 -13 -5 -23 -15 -23 -24 0 -8 -8 -15 -17 -15 -21 0 -108
-78 -99 -87 4 -4 26 12 49 35 60 59 66 52 13 -14 -26 -31 -46 -60 -46 -64 0
-5 -15 -24 -32 -43 -71 -74 -86 -93 -93 -114 -13 -45 13 -21 75 67 64 91 93
114 51 39 -13 -22 -21 -42 -20 -43 2 -2 22 -6 45 -9 33 -6 44 -3 59 13 20 23
35 18 35 -12 0 -17 6 -15 48 19 90 74 172 133 186 133 8 0 16 -6 19 -12 3 -9
21 -4 62 17 31 17 61 35 66 41 5 6 12 74 16 151 5 110 3 142 -7 148 -9 5 -11
4 -6 -4z m-14 -110 c0 -81 -17 -164 -37 -178 -22 -17 -43 -16 -23 0 9 7 17 31
19 53 3 50 -23 74 -80 74 -63 0 -72 8 -41 35 39 33 117 70 155 74 4 1 7 -25 7
-58z m-249 -85 c-7 -8 -11 -32 -9 -52 2 -30 10 -43 35 -60 l32 -21 -22 -21
c-12 -11 -47 -39 -77 -61 -45 -34 -60 -40 -86 -35 -19 3 -35 1 -38 -5 -4 -6
-15 -11 -25 -11 -15 0 -18 8 -16 50 1 47 6 56 56 109 30 31 77 73 104 93 50
35 68 41 46 14z m134 0 c36 -1 40 -4 43 -27 2 -20 -5 -33 -29 -53 -27 -23 -38
-26 -68 -21 -46 9 -61 21 -61 51 0 32 36 68 58 58 9 -4 35 -8 57 -8z"/>
<path d="M1852 2735 c3 -3 48 -17 99 -31 52 -13 112 -33 133 -44 24 -12 45
-16 54 -11 8 5 11 10 6 13 -22 13 -266 78 -291 78 -4 0 -4 -2 -1 -5z"/>
<path d="M2260 2465 c0 -33 2 -35 34 -35 54 0 80 -30 77 -87 -2 -38 -61 -66
-102 -49 -12 5 -18 -4 -26 -51 l-11 -58 61 -62 c34 -34 69 -65 77 -68 8 -3
-12 21 -44 54 -33 33 -57 64 -53 68 11 11 93 -36 140 -81 38 -35 45 -38 84
-32 35 5 46 2 63 -16 23 -25 25 -40 9 -69 -8 -16 -5 -26 19 -53 15 -18 43 -56
62 -84 18 -29 35 -50 38 -47 3 2 -18 39 -45 82 -44 68 -50 83 -46 116 5 32 1
43 -23 68 -24 25 -35 29 -70 28 -35 -2 -49 3 -81 30 -21 18 -67 56 -103 84
l-64 52 34 3 c39 4 90 37 90 58 0 8 4 14 9 14 16 0 172 -181 183 -211 6 -16
19 -34 29 -40 13 -6 19 -21 19 -44 0 -18 5 -37 10 -40 23 -14 64 -93 80 -155
10 -36 27 -101 39 -145 13 -46 24 -126 27 -190 8 -139 -17 -263 -75 -380 -22
-44 -45 -98 -52 -120 -6 -22 -20 -56 -30 -76 -24 -49 -128 -187 -194 -259 -37
-41 -58 -73 -66 -103 -12 -49 -50 -97 -77 -97 -10 0 -42 -22 -71 -50 -80 -75
-175 -139 -260 -175 -42 -18 -92 -40 -112 -48 -65 -29 -187 -57 -292 -68 -188
-19 -239 -21 -246 -12 -7 12 -133 25 -126 13 7 -11 155 -72 230 -96 46 -14 92
-18 190 -18 155 -1 214 15 283 72 28 23 62 41 83 45 20 3 87 30 150 60 67 32
153 64 209 77 52 13 116 33 142 45 25 13 59 26 75 29 40 10 188 159 228 231
49 88 59 132 76 330 11 140 26 193 72 268 37 61 77 172 77 217 0 49 -14 29
-50 -73 -17 -48 -40 -102 -51 -120 -52 -85 -62 -122 -80 -282 -33 -292 -41
-311 -189 -463 -30 -32 -66 -62 -80 -69 -65 -29 -161 -64 -220 -78 -97 -24
-136 -39 -237 -88 -51 -25 -111 -48 -132 -52 -25 -4 -55 -20 -83 -46 -61 -55
-126 -73 -268 -74 -71 0 -134 5 -164 14 l-49 14 54 15 c80 21 79 20 149 21 39
1 60 5 52 10 -9 5 4 10 36 14 53 6 141 35 262 86 112 47 133 58 155 78 11 10
36 30 55 43 19 13 49 37 65 53 17 15 52 37 78 49 50 22 97 83 97 125 0 18 100
142 120 151 4 2 10 -6 13 -17 2 -10 16 -27 31 -36 24 -16 28 -16 51 -1 14 9
25 25 25 36 0 30 -38 63 -65 58 l-23 -5 26 41 c56 89 91 157 112 220 12 36 26
68 31 71 5 4 9 18 10 33 l1 27 7 -25 c9 -34 18 -17 26 55 4 33 16 86 26 118
34 107 23 341 -22 465 -33 90 -41 123 -35 138 3 8 2 12 -3 9 -5 -3 -13 5 -17
17 -4 13 -17 39 -29 58 -13 19 -28 51 -34 71 -6 20 -23 47 -36 59 -14 13 -25
30 -25 37 0 8 -7 16 -16 20 -8 3 -13 12 -10 20 3 8 2 12 -3 9 -7 -5 -96 88
-129 135 -11 16 -11 19 1 19 35 0 244 -217 279 -290 10 -19 17 -31 18 -27 1
23 53 -60 99 -156 49 -105 73 -180 88 -282 l8 -50 3 53 c2 29 -4 78 -13 108
-20 68 -117 273 -148 311 -13 15 -31 42 -42 58 -72 116 -244 281 -407 393
l-48 33 0 -36z m328 -1737 c14 -14 16 -48 3 -48 -22 0 -41 13 -41 29 0 31 18
39 38 19z"/>
<path d="M1138 2381 c-81 -47 -172 -122 -161 -132 14 -12 196 -50 203 -42 4 5
12 44 19 88 7 44 15 90 18 103 7 30 -2 28 -79 -17z m27 -108 c-6 -33 -7 -34
-43 -28 -20 3 -43 6 -49 7 -35 3 6 56 73 94 16 10 19 8 22 -14 2 -14 1 -41 -3
-59z"/>
<path d="M647 2208 c-8 -30 -27 -39 -27 -13 0 8 -3 15 -7 15 -10 0 -61 -110
-68 -147 -3 -15 8 0 24 35 30 63 36 68 60 53 11 -7 10 -16 -10 -47 -26 -42
-43 -97 -59 -185 -6 -31 -17 -76 -25 -99 -19 -52 -19 -60 -1 -60 8 0 16 15 20
38 14 83 50 222 58 222 4 0 5 7 2 15 -4 8 1 17 10 21 9 3 16 11 16 16 0 5 9
23 21 39 19 27 19 32 7 76 -13 46 -14 47 -21 21z"/>
<path d="M491 2076 c-41 -116 -62 -196 -75 -297 -12 -96 -9 -252 5 -244 5 4 9
22 9 41 0 33 12 45 25 24 3 -5 13 -60 21 -122 8 -62 22 -137 31 -165 9 -29 14
-56 10 -59 -12 -12 -35 16 -41 51 -7 36 -26 49 -26 17 0 -16 28 -111 35 -120
1 -1 19 8 39 20 39 25 39 23 8 108 -11 30 -26 102 -32 160 -11 96 -14 108 -46
147 -19 23 -34 47 -34 55 0 23 30 58 50 58 11 0 22 12 29 32 6 17 9 33 7 36
-7 7 -26 -8 -26 -21 0 -7 -9 -18 -20 -25 -18 -11 -20 -10 -20 10 0 36 36 175
69 268 33 90 36 110 22 110 -5 0 -23 -38 -40 -84z"/>
<path d="M2210 2120 c0 -5 10 -18 22 -30 12 -11 17 -20 10 -20 -6 0 -14 5 -17
10 -8 13 -25 3 -25 -13 0 -9 19 -13 57 -13 l57 -1 -42 38 c-41 38 -62 48 -62
29z"/>
<path d="M283 2093 c-7 -3 -13 -9 -13 -15 0 -6 -11 -26 -26 -45 -14 -18 -23
-37 -20 -42 3 -4 -6 -52 -19 -106 -15 -57 -25 -123 -24 -159 1 -59 2 -57 19
49 22 129 51 233 80 282 22 38 22 43 3 36z"/>
<path d="M522 1983 c-23 -110 -25 -143 -8 -143 9 0 18 12 22 28 3 15 7 33 10
40 2 8 -1 10 -8 6 -8 -5 -9 10 -4 55 8 73 2 80 -12 14z"/>
<path d="M711 1988 c-14 -44 -51 -194 -51 -206 0 -5 11 -7 24 -5 20 4 25 13
30 55 4 28 14 70 22 95 15 45 12 93 -5 93 -5 0 -14 -15 -20 -32z"/>
<path d="M755 1935 c16 -43 16 -63 1 -100 -9 -21 -14 -40 -12 -43 6 -5 96 7
96 14 0 11 -51 101 -71 124 -17 20 -20 21 -14 5z"/>
<path d="M2547 1930 c-4 -8 0 -33 8 -55 11 -30 14 -34 13 -15 -1 44 -14 87
-21 70z"/>
<path d="M2532 1823 c43 -88 76 -203 88 -300 10 -86 10 -233 0 -233 -8 0 -6
-150 2 -150 10 0 15 25 29 140 14 122 6 278 -17 347 -24 72 -111 253 -122 253
-5 0 4 -26 20 -57z"/>
<path d="M600 1818 c-27 -45 -25 -55 10 -50 27 4 30 8 30 43 0 48 -14 50 -40
7z"/>
<path d="M2460 1815 c-12 -14 -11 -20 2 -43 38 -67 82 -262 58 -262 -5 0 -10
4 -10 9 0 5 -24 21 -53 36 -39 19 -60 37 -77 67 -21 38 -22 42 -7 53 10 7 17
17 17 24 0 6 14 24 30 39 17 16 30 32 30 36 0 24 -56 -24 -80 -70 -8 -15 -25
-39 -38 -53 -28 -30 -33 -25 106 -107 101 -60 123 -87 104 -128 -6 -14 -11
-58 -11 -100 0 -41 -3 -91 -7 -110 -10 -57 12 -43 28 17 8 33 13 108 13 202
-1 160 -15 235 -67 353 -22 48 -26 52 -38 37z"/>
<path d="M10 1523 c1 -45 18 -107 49 -174 42 -93 45 -113 45 -344 1 -232 -2
-218 80 -359 30 -51 44 -64 105 -96 117 -62 172 -108 197 -169 8 -19 31 -53
52 -76 20 -23 45 -55 54 -73 34 -64 154 -96 305 -81 46 5 93 14 105 20 18 10
81 7 142 -6 24 -5 85 -12 196 -21 67 -6 73 -5 55 9 -12 8 -57 17 -110 21 -187
15 -422 89 -528 167 -28 21 -81 58 -117 82 -36 24 -89 65 -117 91 -62 56 -71
49 -14 -9 51 -52 62 -61 113 -87 24 -12 66 -41 94 -65 28 -24 56 -43 63 -43 6
0 14 -7 17 -15 4 -8 12 -15 19 -15 7 0 26 -6 42 -14 15 -8 50 -24 77 -36 72
-31 49 -43 -86 -44 -149 -1 -192 15 -251 91 -23 30 -56 79 -72 108 -17 30 -42
66 -55 81 -31 33 -124 96 -178 119 -32 14 -49 34 -88 98 -27 44 -53 92 -58
106 -5 14 -10 125 -10 246 -1 206 -3 224 -25 280 -13 33 -27 65 -31 70 -8 11
-35 93 -44 138 -4 15 -11 27 -16 27 -6 0 -10 -12 -10 -27z"/>
<path d="M540 1532 c0 -5 17 -61 38 -125 30 -93 40 -114 52 -107 10 6 11 12 3
22 -10 12 -43 112 -43 130 0 4 4 8 9 8 5 0 17 -29 26 -65 10 -36 22 -68 26
-71 5 -3 24 6 43 18 l34 24 -94 88 c-52 48 -94 83 -94 78z"/>
<path d="M2375 1317 c-66 -33 -121 -62 -122 -62 -1 -1 9 -23 22 -50 14 -26 25
-56 25 -65 0 -23 32 -50 37 -32 9 24 25 12 19 -14 -5 -17 0 -34 14 -54 40 -57
21 -87 -73 -114 -43 -12 -61 -23 -69 -41 -12 -27 -52 -58 -62 -48 -12 12 -5
23 25 38 17 9 29 18 27 20 -7 7 -88 -17 -88 -27 0 -5 18 -33 40 -63 22 -30 40
-59 40 -64 0 -6 11 -22 24 -36 l25 -26 16 25 c10 14 23 26 30 26 7 0 39 30 71
66 57 64 58 68 62 132 2 37 8 71 13 77 5 5 9 14 9 20 -1 5 -10 -1 -22 -15
l-21 -25 6 25 c3 14 15 61 27 105 17 62 21 97 17 157 -3 43 -2 77 1 76 13 -4
52 14 52 23 0 17 -25 8 -145 -54z m75 -69 c0 -42 -9 -85 -25 -128 -13 -36 -24
-59 -24 -52 -1 7 -6 10 -11 7 -6 -4 -13 7 -16 24 -4 19 -13 31 -23 31 -11 0
-22 19 -34 56 -10 31 -16 58 -15 59 11 10 125 64 136 65 8 0 12 -19 12 -62z
m-36 -363 c-20 -43 -120 -145 -141 -145 -19 0 -43 23 -63 60 -9 16 -9 25 0 36
7 7 16 11 21 8 5 -3 6 1 3 9 -6 16 59 47 97 47 19 0 21 -4 15 -37 -5 -31 1
-24 31 40 38 77 38 77 45 45 4 -21 1 -44 -8 -63z"/>
<path d="M262 1314 c-27 -18 -29 -55 -4 -77 23 -21 47 -21 71 0 16 13 17 21
10 41 -9 23 -36 51 -49 52 -3 0 -16 -7 -28 -16z m48 -33 c14 -26 13 -41 -3
-41 -24 0 -48 25 -41 43 8 23 31 22 44 -2z"/>
<path d="M211 1101 c-3 -75 60 -178 169 -276 30 -27 18 -9 -39 58 -70 83 -87
109 -107 170 -12 40 -23 61 -23 48z"/>
<path d="M270 1099 c-1 -22 84 -176 132 -241 32 -42 58 -81 58 -86 0 -20 72
-91 107 -105 21 -9 50 -27 64 -40 39 -37 175 -120 254 -155 39 -17 84 -38 100
-46 17 -9 36 -16 43 -16 6 0 12 -4 12 -10 0 -5 -15 -10 -32 -10 -25 0 -29 -3
-18 -10 17 -11 61 -13 85 -4 14 6 14 8 -1 25 -9 11 -24 19 -33 19 -9 0 -65 23
-124 50 -120 55 -254 140 -306 194 -19 20 -40 36 -46 36 -19 0 -107 100 -101
116 3 8 1 14 -4 14 -6 0 -10 -6 -10 -12 0 -7 -9 2 -20 19 l-20 33 26 37 c19
28 24 46 20 68 -12 57 -89 110 -127 87 -15 -10 -21 -7 -38 16 -11 15 -21 24
-21 21z m131 -88 c34 -34 37 -60 10 -92 -17 -21 -21 -22 -34 -9 -13 14 -47
102 -47 122 0 19 44 6 71 -21z"/>
<path d="M2550 1064 c0 -12 -10 -32 -23 -46 -26 -28 -43 -66 -52 -118 -6 -35
-6 -35 9 -10 9 14 15 35 16 48 0 12 5 22 10 22 6 0 10 7 10 15 0 8 4 15 8 15
15 0 41 66 31 81 -7 11 -9 9 -9 -7z"/>
<path d="M2260 644 c0 -21 -28 -43 -54 -44 -19 0 -19 0 -1 -13 12 -10 14 -16
7 -21 -15 -9 -16 -53 -2 -61 6 -3 10 4 10 18 0 28 32 65 63 71 12 3 31 7 42 9
15 3 12 6 -12 12 -23 5 -33 13 -33 26 0 11 -4 19 -10 19 -5 0 -10 -7 -10 -16z"/>
<path d="M517 595 c3 -10 -1 -15 -13 -16 -18 0 -18 -1 -1 -12 24 -15 134 -101
167 -130 14 -11 28 -21 31 -22 4 0 15 -10 25 -22 20 -23 103 -58 236 -98 75
-24 299 -51 348 -43 22 4 20 5 -15 16 -22 6 -86 20 -143 31 -57 11 -121 28
-143 39 -42 21 -55 14 -14 -8 14 -7 25 -16 25 -20 0 -11 -92 6 -137 26 -34 15
-40 21 -32 35 7 15 5 18 -19 17 -43 -1 -81 24 -227 144 -52 42 -91 71 -88 63z"/>
<path d="M701 491 c105 -70 159 -98 159 -82 0 5 -33 26 -72 46 -40 20 -82 45
-93 55 -20 18 -78 50 -91 50 -4 0 40 -31 97 -69z"/>
<path d="M2127 425 c-20 -14 -37 -28 -37 -32 0 -3 10 2 23 11 12 9 36 23 52
31 17 8 23 14 15 15 -9 0 -32 -11 -53 -25z"/>
<path d="M2037 373 c-11 -3 -35 -16 -55 -30 -29 -20 -32 -24 -12 -18 26 8 90
44 90 51 0 2 -1 3 -2 3 -2 -1 -11 -3 -21 -6z"/>
<path d="M1465 200 c-59 -3 -84 -8 -73 -14 23 -11 98 -11 171 -1 60 8 80 26
25 23 -18 -1 -73 -4 -123 -8z"/>
</g>
</svg>
